# xmcd CD database file
#
# Track frame offsets:
#	150
#	6027
#	25907
#	49343
#	58832
#	79807
#	94816
#	112705
#	131170
#	158461
#	178119
#	189558
#
# Disc length: 2757 seconds
#
# Revision: 0
# Processed by: cddbd v1.5.2PL0 Copyright (c) Steve Scherf et al.
# Submitted via: CDex 1.70beta2
#
DISCID=950ac30c
DTITLE=Terje Gewelt - If Time Stood Still
DYEAR=2007
DGENRE=Jazz
TTITLE0=Mountain Aire
TTITLE1=Daybreak
TTITLE2=Cry Wolf
TTITLE3=Words Not Spoken
TTITLE4=Bloom
TTITLE5=Nellie Goes To Nashville
TTITLE6=Facing East
TTITLE7=When Summer Comes
TTITLE8=Collateral Damage
TTITLE9=Nomad
TTITLE10=This Is It
TTITLE11=If Time Stood Still
EXTD=YEAR: 2007
EXTT0=
EXTT1=
EXTT2=
EXTT3=
EXTT4=
EXTT5=
EXTT6=
EXTT7=
EXTT8=
EXTT9=
EXTT10=
EXTT11=
PLAYORDER=
